<svg width="47" height="47" viewBox="0 0 47 47" fill="none" xmlns="http://www.w3.org/2000/svg">
<rect width="47" height="47" rx="3" fill="#76808C" fill-opacity="0.05"/>
<path d="M29.5037 20.25H26.5V17.75C26.5 16.46 26.605 15.6475 28.4537 15.6475H29.5387C30.2287 15.6475 30.7887 15.0875 30.7887 14.3975V12.83C30.7887 12.1763 30.2875 11.6175 29.635 11.5738C28.88 11.5225 28.1237 11.4988 27.3662 11.5C23.975 11.5 21.5 13.5713 21.5 17.3738V20.25H19C18.31 20.25 17.75 20.81 17.75 21.5V24C17.75 24.69 18.31 25.25 19 25.25L21.5 25.2488V35.25C21.5 35.9401 22.06 36.5 22.75 36.5H25.25C25.94 36.5 26.5 35.9401 26.5 35.25V25.2463L29.2175 25.245C29.8525 25.245 30.3862 24.7688 30.4587 24.1375L30.745 21.6425C30.8312 20.9013 30.2512 20.25 29.5037 20.25Z" fill="#76808C"/>
</svg>
