<svg width="47" height="47" viewBox="0 0 47 47" fill="none" xmlns="http://www.w3.org/2000/svg">
<rect width="47" height="47" rx="3" fill="#76808C" fill-opacity="0.05"/>
<path d="M15.1383 13.5C14.3835 13.5 13.941 14.3502 14.3727 14.9697L21.359 24.9548L14.3453 33.1533C13.8915 33.683 14.2675 34.5 14.9651 34.5H15.7399C16.0817 34.5 16.4069 34.35 16.6285 34.0898L22.7399 26.9303L27.3405 33.5042C27.778 34.1272 28.4916 34.5 29.2522 34.5H33.1419C33.8967 34.5 34.3392 33.6509 33.9075 33.0326L26.5361 22.4824L33.2171 14.6553C33.6044 14.2003 33.2812 13.5 32.6839 13.5H31.6972C31.3566 13.5 31.0325 13.6489 30.8108 13.9079L25.1621 20.5114L20.9603 14.498C20.5239 13.8727 19.8115 13.5 19.0485 13.5H15.1383Z" fill="#76808C"/>
</svg>
