<svg width="22" height="22" viewBox="0 0 22 22" fill="none" xmlns="http://www.w3.org/2000/svg">
<path d="M18.5893 11.895C18.6326 11.5483 18.6651 11.2017 18.6651 10.8333C18.6651 10.465 18.6326 10.1183 18.5893 9.77167L20.8751 7.98417C21.0809 7.82167 21.1351 7.52917 21.0051 7.29083L18.8384 3.5425C18.7084 3.30417 18.4159 3.2175 18.1776 3.30417L15.4801 4.3875C14.9168 3.95417 14.3101 3.59667 13.6493 3.32583L13.2376 0.455C13.2051 0.195 12.9776 0 12.7068 0H8.37344C8.10261 0 7.87511 0.195 7.84261 0.455L7.43094 3.32583C6.77011 3.59667 6.16344 3.965 5.60011 4.3875L2.90261 3.30417C2.65344 3.20667 2.37178 3.30417 2.24178 3.5425L0.0751092 7.29083C-0.0657241 7.52917 -0.000723994 7.82167 0.205109 7.98417L2.49094 9.77167C2.44761 10.1183 2.41511 10.4758 2.41511 10.8333C2.41511 11.1908 2.44761 11.5483 2.49094 11.895L0.205109 13.6825C-0.000723994 13.845 -0.0548908 14.1375 0.0751092 14.3758L2.24178 18.1242C2.37178 18.3625 2.66428 18.4492 2.90261 18.3625L5.60011 17.2792C6.16344 17.7125 6.77011 18.07 7.43094 18.3408L7.84261 21.2117C7.87511 21.4717 8.10261 21.6667 8.37344 21.6667H12.7068C12.9776 21.6667 13.2051 21.4717 13.2376 21.2117L13.6493 18.3408C14.3101 18.07 14.9168 17.7017 15.4801 17.2792L18.1776 18.3625C18.4268 18.46 18.7084 18.3625 18.8384 18.1242L21.0051 14.3758C21.1351 14.1375 21.0809 13.845 20.8751 13.6825L18.5893 11.895ZM10.5401 14.625C8.44928 14.625 6.74844 12.9242 6.74844 10.8333C6.74844 8.7425 8.44928 7.04167 10.5401 7.04167C12.6309 7.04167 14.3318 8.7425 14.3318 10.8333C14.3318 12.9242 12.6309 14.625 10.5401 14.625Z" fill="#76808C"/>
</svg>
