<svg width="20" height="20" viewBox="0 0 20 20" fill="none" xmlns="http://www.w3.org/2000/svg">
<g clip-path="url(#clip0_634_15175)">
<path d="M14.8333 10.6667H10.6667V14.8333C10.6667 15.2917 10.2917 15.6667 9.83333 15.6667C9.375 15.6667 9 15.2917 9 14.8333V10.6667H4.83333C4.375 10.6667 4 10.2917 4 9.83333C4 9.375 4.375 9 4.83333 9H9V4.83333C9 4.375 9.375 4 9.83333 4C10.2917 4 10.6667 4.375 10.6667 4.83333V9H14.8333C15.2917 9 15.6667 9.375 15.6667 9.83333C15.6667 10.2917 15.2917 10.6667 14.8333 10.6667Z" fill="#76808C"/>
</g>
<defs>
<clipPath id="clip0_634_15175">
<rect width="20" height="20" fill="white"/>
</clipPath>
</defs>
</svg>
