<svg width="24" height="24" viewBox="0 0 24 24" fill="none" xmlns="http://www.w3.org/2000/svg">
<g clip-path="url(#clip0_1010_1574)">
<path d="M19.6602 3.98998C17.0202 2.18998 13.7602 3.02998 12.0002 5.08998C10.2402 3.02998 6.98021 2.17998 4.34021 3.98998C2.94021 4.94998 2.06021 6.56998 2.00021 8.27998C1.86021 12.16 5.30021 15.27 10.5502 20.04L10.6502 20.13C11.4102 20.82 12.5802 20.82 13.3402 20.12L13.4502 20.02C18.7002 15.26 22.1302 12.15 22.0002 8.26998C21.9402 6.56998 21.0602 4.94998 19.6602 3.98998ZM12.1002 18.55L12.0002 18.65L11.9002 18.55C7.14021 14.24 4.00021 11.39 4.00021 8.49998C4.00021 6.49998 5.50021 4.99998 7.50021 4.99998C9.04021 4.99998 10.5402 5.98998 11.0702 7.35998H12.9402C13.4602 5.98998 14.9602 4.99998 16.5002 4.99998C18.5002 4.99998 20.0002 6.49998 20.0002 8.49998C20.0002 11.39 16.8602 14.24 12.1002 18.55Z" fill="#F3F3F3"/>
</g>
<defs>
<clipPath id="clip0_1010_1574">
<rect width="24" height="24" fill="white"/>
</clipPath>
</defs>
</svg>
