<svg width="23" height="15" viewBox="0 0 23 15" fill="none" xmlns="http://www.w3.org/2000/svg">
<path d="M15.625 6.25C17.3542 6.25 18.7396 4.85417 18.7396 3.125C18.7396 1.39583 17.3542 0 15.625 0C13.8958 0 12.5 1.39583 12.5 3.125C12.5 4.85417 13.8958 6.25 15.625 6.25ZM7.29167 6.25C9.02083 6.25 10.4062 4.85417 10.4062 3.125C10.4062 1.39583 9.02083 0 7.29167 0C5.5625 0 4.16667 1.39583 4.16667 3.125C4.16667 4.85417 5.5625 6.25 7.29167 6.25ZM7.29167 8.33333C4.86458 8.33333 0 9.55208 0 11.9792V13.5417C0 14.1146 0.46875 14.5833 1.04167 14.5833H13.5417C14.1146 14.5833 14.5833 14.1146 14.5833 13.5417V11.9792C14.5833 9.55208 9.71875 8.33333 7.29167 8.33333ZM15.625 8.33333C15.3229 8.33333 14.9792 8.35417 14.6146 8.38542C14.6354 8.39583 14.6458 8.41667 14.6562 8.42708C15.8437 9.29167 16.6667 10.4479 16.6667 11.9792V13.5417C16.6667 13.9062 16.5938 14.2604 16.4792 14.5833H21.875C22.4479 14.5833 22.9167 14.1146 22.9167 13.5417V11.9792C22.9167 9.55208 18.0521 8.33333 15.625 8.33333Z" fill="#76808C"/>
</svg>
