<svg xmlns="http://www.w3.org/2000/svg" viewBox="0 0 1024 1024" width="1024" height="1024">
<rect width="1024" height="1024" fill="#ffffff"/>
<rect x="288.36" y="20.00" width="29.82" height="29.82" fill="#000000"/>
<rect x="407.64" y="20.00" width="29.82" height="29.82" fill="#000000"/>
<rect x="437.45" y="20.00" width="29.82" height="29.82" fill="#000000"/>
<rect x="497.09" y="20.00" width="29.82" height="29.82" fill="#000000"/>
<rect x="526.91" y="20.00" width="29.82" height="29.82" fill="#000000"/>
<rect x="586.55" y="20.00" width="29.82" height="29.82" fill="#000000"/>
<rect x="616.36" y="20.00" width="29.82" height="29.82" fill="#000000"/>
<rect x="646.18" y="20.00" width="29.82" height="29.82" fill="#000000"/>
<rect x="705.82" y="20.00" width="29.82" height="29.82" fill="#000000"/>
<rect x="735.64" y="20.00" width="29.82" height="29.82" fill="#000000"/>
<rect x="288.36" y="49.82" width="29.82" height="29.82" fill="#000000"/>
<rect x="318.18" y="49.82" width="29.82" height="29.82" fill="#000000"/>
<rect x="407.64" y="49.82" width="29.82" height="29.82" fill="#000000"/>
<rect x="437.45" y="49.82" width="29.82" height="29.82" fill="#000000"/>
<rect x="467.27" y="49.82" width="29.82" height="29.82" fill="#000000"/>
<rect x="497.09" y="49.82" width="29.82" height="29.82" fill="#000000"/>
<rect x="526.91" y="49.82" width="29.82" height="29.82" fill="#000000"/>
<rect x="258.55" y="79.64" width="29.82" height="29.82" fill="#000000"/>
<rect x="288.36" y="79.64" width="29.82" height="29.82" fill="#000000"/>
<rect x="318.18" y="79.64" width="29.82" height="29.82" fill="#000000"/>
<rect x="348.00" y="79.64" width="29.82" height="29.82" fill="#000000"/>
<rect x="407.64" y="79.64" width="29.82" height="29.82" fill="#000000"/>
<rect x="497.09" y="79.64" width="29.82" height="29.82" fill="#000000"/>
<rect x="526.91" y="79.64" width="29.82" height="29.82" fill="#000000"/>
<rect x="556.73" y="79.64" width="29.82" height="29.82" fill="#000000"/>
<rect x="616.36" y="79.64" width="29.82" height="29.82" fill="#000000"/>
<rect x="646.18" y="79.64" width="29.82" height="29.82" fill="#000000"/>
<rect x="258.55" y="109.45" width="29.82" height="29.82" fill="#000000"/>
<rect x="288.36" y="109.45" width="29.82" height="29.82" fill="#000000"/>
<rect x="377.82" y="109.45" width="29.82" height="29.82" fill="#000000"/>
<rect x="437.45" y="109.45" width="29.82" height="29.82" fill="#000000"/>
<rect x="497.09" y="109.45" width="29.82" height="29.82" fill="#000000"/>
<rect x="616.36" y="109.45" width="29.82" height="29.82" fill="#000000"/>
<rect x="676.00" y="109.45" width="29.82" height="29.82" fill="#000000"/>
<rect x="258.55" y="139.27" width="29.82" height="29.82" fill="#000000"/>
<rect x="318.18" y="139.27" width="29.82" height="29.82" fill="#000000"/>
<rect x="377.82" y="139.27" width="29.82" height="29.82" fill="#000000"/>
<rect x="467.27" y="139.27" width="29.82" height="29.82" fill="#000000"/>
<rect x="556.73" y="139.27" width="29.82" height="29.82" fill="#000000"/>
<rect x="676.00" y="139.27" width="29.82" height="29.82" fill="#000000"/>
<rect x="258.55" y="169.09" width="29.82" height="29.82" fill="#000000"/>
<rect x="288.36" y="169.09" width="29.82" height="29.82" fill="#000000"/>
<rect x="318.18" y="169.09" width="29.82" height="29.82" fill="#000000"/>
<rect x="407.64" y="169.09" width="29.82" height="29.82" fill="#000000"/>
<rect x="467.27" y="169.09" width="29.82" height="29.82" fill="#000000"/>
<rect x="497.09" y="169.09" width="29.82" height="29.82" fill="#000000"/>
<rect x="526.91" y="169.09" width="29.82" height="29.82" fill="#000000"/>
<rect x="616.36" y="169.09" width="29.82" height="29.82" fill="#000000"/>
<rect x="676.00" y="169.09" width="29.82" height="29.82" fill="#000000"/>
<rect x="258.55" y="198.91" width="29.82" height="29.82" fill="#000000"/>
<rect x="318.18" y="198.91" width="29.82" height="29.82" fill="#000000"/>
<rect x="377.82" y="198.91" width="29.82" height="29.82" fill="#000000"/>
<rect x="437.45" y="198.91" width="29.82" height="29.82" fill="#000000"/>
<rect x="497.09" y="198.91" width="29.82" height="29.82" fill="#000000"/>
<rect x="556.73" y="198.91" width="29.82" height="29.82" fill="#000000"/>
<rect x="616.36" y="198.91" width="29.82" height="29.82" fill="#000000"/>
<rect x="676.00" y="198.91" width="29.82" height="29.82" fill="#000000"/>
<rect x="735.64" y="198.91" width="29.82" height="29.82" fill="#000000"/>
<rect x="258.55" y="228.73" width="29.82" height="29.82" fill="#000000"/>
<rect x="288.36" y="228.73" width="29.82" height="29.82" fill="#000000"/>
<rect x="348.00" y="228.73" width="29.82" height="29.82" fill="#000000"/>
<rect x="437.45" y="228.73" width="29.82" height="29.82" fill="#000000"/>
<rect x="467.27" y="228.73" width="29.82" height="29.82" fill="#000000"/>
<rect x="646.18" y="228.73" width="29.82" height="29.82" fill="#000000"/>
<rect x="705.82" y="228.73" width="29.82" height="29.82" fill="#000000"/>
<rect x="735.64" y="228.73" width="29.82" height="29.82" fill="#000000"/>
<rect x="20.00" y="258.55" width="29.82" height="29.82" fill="#000000"/>
<rect x="79.64" y="258.55" width="29.82" height="29.82" fill="#000000"/>
<rect x="109.45" y="258.55" width="29.82" height="29.82" fill="#000000"/>
<rect x="139.27" y="258.55" width="29.82" height="29.82" fill="#000000"/>
<rect x="169.09" y="258.55" width="29.82" height="29.82" fill="#000000"/>
<rect x="198.91" y="258.55" width="29.82" height="29.82" fill="#000000"/>
<rect x="288.36" y="258.55" width="29.82" height="29.82" fill="#000000"/>
<rect x="318.18" y="258.55" width="29.82" height="29.82" fill="#000000"/>
<rect x="407.64" y="258.55" width="29.82" height="29.82" fill="#000000"/>
<rect x="437.45" y="258.55" width="29.82" height="29.82" fill="#000000"/>
<rect x="467.27" y="258.55" width="29.82" height="29.82" fill="#000000"/>
<rect x="497.09" y="258.55" width="29.82" height="29.82" fill="#000000"/>
<rect x="526.91" y="258.55" width="29.82" height="29.82" fill="#000000"/>
<rect x="556.73" y="258.55" width="29.82" height="29.82" fill="#000000"/>
<rect x="616.36" y="258.55" width="29.82" height="29.82" fill="#000000"/>
<rect x="676.00" y="258.55" width="29.82" height="29.82" fill="#000000"/>
<rect x="795.27" y="258.55" width="29.82" height="29.82" fill="#000000"/>
<rect x="825.09" y="258.55" width="29.82" height="29.82" fill="#000000"/>
<rect x="854.91" y="258.55" width="29.82" height="29.82" fill="#000000"/>
<rect x="884.73" y="258.55" width="29.82" height="29.82" fill="#000000"/>
<rect x="914.55" y="258.55" width="29.82" height="29.82" fill="#000000"/>
<rect x="20.00" y="288.36" width="29.82" height="29.82" fill="#000000"/>
<rect x="49.82" y="288.36" width="29.82" height="29.82" fill="#000000"/>
<rect x="79.64" y="288.36" width="29.82" height="29.82" fill="#000000"/>
<rect x="109.45" y="288.36" width="29.82" height="29.82" fill="#000000"/>
<rect x="169.09" y="288.36" width="29.82" height="29.82" fill="#000000"/>
<rect x="318.18" y="288.36" width="29.82" height="29.82" fill="#000000"/>
<rect x="348.00" y="288.36" width="29.82" height="29.82" fill="#000000"/>
<rect x="586.55" y="288.36" width="29.82" height="29.82" fill="#000000"/>
<rect x="646.18" y="288.36" width="29.82" height="29.82" fill="#000000"/>
<rect x="705.82" y="288.36" width="29.82" height="29.82" fill="#000000"/>
<rect x="795.27" y="288.36" width="29.82" height="29.82" fill="#000000"/>
<rect x="825.09" y="288.36" width="29.82" height="29.82" fill="#000000"/>
<rect x="884.73" y="288.36" width="29.82" height="29.82" fill="#000000"/>
<rect x="914.55" y="288.36" width="29.82" height="29.82" fill="#000000"/>
<rect x="49.82" y="318.18" width="29.82" height="29.82" fill="#000000"/>
<rect x="79.64" y="318.18" width="29.82" height="29.82" fill="#000000"/>
<rect x="198.91" y="318.18" width="29.82" height="29.82" fill="#000000"/>
<rect x="228.73" y="318.18" width="29.82" height="29.82" fill="#000000"/>
<rect x="288.36" y="318.18" width="29.82" height="29.82" fill="#000000"/>
<rect x="348.00" y="318.18" width="29.82" height="29.82" fill="#000000"/>
<rect x="467.27" y="318.18" width="29.82" height="29.82" fill="#000000"/>
<rect x="497.09" y="318.18" width="29.82" height="29.82" fill="#000000"/>
<rect x="556.73" y="318.18" width="29.82" height="29.82" fill="#000000"/>
<rect x="616.36" y="318.18" width="29.82" height="29.82" fill="#000000"/>
<rect x="646.18" y="318.18" width="29.82" height="29.82" fill="#000000"/>
<rect x="735.64" y="318.18" width="29.82" height="29.82" fill="#000000"/>
<rect x="765.45" y="318.18" width="29.82" height="29.82" fill="#000000"/>
<rect x="854.91" y="318.18" width="29.82" height="29.82" fill="#000000"/>
<rect x="914.55" y="318.18" width="29.82" height="29.82" fill="#000000"/>
<rect x="944.36" y="318.18" width="29.82" height="29.82" fill="#000000"/>
<rect x="79.64" y="348.00" width="29.82" height="29.82" fill="#000000"/>
<rect x="139.27" y="348.00" width="29.82" height="29.82" fill="#000000"/>
<rect x="169.09" y="348.00" width="29.82" height="29.82" fill="#000000"/>
<rect x="228.73" y="348.00" width="29.82" height="29.82" fill="#000000"/>
<rect x="288.36" y="348.00" width="29.82" height="29.82" fill="#000000"/>
<rect x="437.45" y="348.00" width="29.82" height="29.82" fill="#000000"/>
<rect x="467.27" y="348.00" width="29.82" height="29.82" fill="#000000"/>
<rect x="586.55" y="348.00" width="29.82" height="29.82" fill="#000000"/>
<rect x="616.36" y="348.00" width="29.82" height="29.82" fill="#000000"/>
<rect x="646.18" y="348.00" width="29.82" height="29.82" fill="#000000"/>
<rect x="795.27" y="348.00" width="29.82" height="29.82" fill="#000000"/>
<rect x="854.91" y="348.00" width="29.82" height="29.82" fill="#000000"/>
<rect x="884.73" y="348.00" width="29.82" height="29.82" fill="#000000"/>
<rect x="914.55" y="348.00" width="29.82" height="29.82" fill="#000000"/>
<rect x="944.36" y="348.00" width="29.82" height="29.82" fill="#000000"/>
<rect x="109.45" y="377.82" width="29.82" height="29.82" fill="#000000"/>
<rect x="169.09" y="377.82" width="29.82" height="29.82" fill="#000000"/>
<rect x="198.91" y="377.82" width="29.82" height="29.82" fill="#000000"/>
<rect x="258.55" y="377.82" width="29.82" height="29.82" fill="#000000"/>
<rect x="467.27" y="377.82" width="29.82" height="29.82" fill="#000000"/>
<rect x="556.73" y="377.82" width="29.82" height="29.82" fill="#000000"/>
<rect x="765.45" y="377.82" width="29.82" height="29.82" fill="#000000"/>
<rect x="825.09" y="377.82" width="29.82" height="29.82" fill="#000000"/>
<rect x="884.73" y="377.82" width="29.82" height="29.82" fill="#000000"/>
<rect x="20.00" y="407.64" width="29.82" height="29.82" fill="#000000"/>
<rect x="49.82" y="407.64" width="29.82" height="29.82" fill="#000000"/>
<rect x="79.64" y="407.64" width="29.82" height="29.82" fill="#000000"/>
<rect x="109.45" y="407.64" width="29.82" height="29.82" fill="#000000"/>
<rect x="139.27" y="407.64" width="29.82" height="29.82" fill="#000000"/>
<rect x="169.09" y="407.64" width="29.82" height="29.82" fill="#000000"/>
<rect x="228.73" y="407.64" width="29.82" height="29.82" fill="#000000"/>
<rect x="288.36" y="407.64" width="29.82" height="29.82" fill="#000000"/>
<rect x="318.18" y="407.64" width="29.82" height="29.82" fill="#000000"/>
<rect x="377.82" y="407.64" width="29.82" height="29.82" fill="#000000"/>
<rect x="437.45" y="407.64" width="29.82" height="29.82" fill="#000000"/>
<rect x="467.27" y="407.64" width="29.82" height="29.82" fill="#000000"/>
<rect x="497.09" y="407.64" width="29.82" height="29.82" fill="#000000"/>
<rect x="526.91" y="407.64" width="29.82" height="29.82" fill="#000000"/>
<rect x="616.36" y="407.64" width="29.82" height="29.82" fill="#000000"/>
<rect x="646.18" y="407.64" width="29.82" height="29.82" fill="#000000"/>
<rect x="676.00" y="407.64" width="29.82" height="29.82" fill="#000000"/>
<rect x="705.82" y="407.64" width="29.82" height="29.82" fill="#000000"/>
<rect x="765.45" y="407.64" width="29.82" height="29.82" fill="#000000"/>
<rect x="884.73" y="407.64" width="29.82" height="29.82" fill="#000000"/>
<rect x="914.55" y="407.64" width="29.82" height="29.82" fill="#000000"/>
<rect x="944.36" y="407.64" width="29.82" height="29.82" fill="#000000"/>
<rect x="974.18" y="407.64" width="29.82" height="29.82" fill="#000000"/>
<rect x="20.00" y="437.45" width="29.82" height="29.82" fill="#000000"/>
<rect x="139.27" y="437.45" width="29.82" height="29.82" fill="#000000"/>
<rect x="169.09" y="437.45" width="29.82" height="29.82" fill="#000000"/>
<rect x="198.91" y="437.45" width="29.82" height="29.82" fill="#000000"/>
<rect x="258.55" y="437.45" width="29.82" height="29.82" fill="#000000"/>
<rect x="407.64" y="437.45" width="29.82" height="29.82" fill="#000000"/>
<rect x="556.73" y="437.45" width="29.82" height="29.82" fill="#000000"/>
<rect x="586.55" y="437.45" width="29.82" height="29.82" fill="#000000"/>
<rect x="765.45" y="437.45" width="29.82" height="29.82" fill="#000000"/>
<rect x="795.27" y="437.45" width="29.82" height="29.82" fill="#000000"/>
<rect x="884.73" y="437.45" width="29.82" height="29.82" fill="#000000"/>
<rect x="914.55" y="437.45" width="29.82" height="29.82" fill="#000000"/>
<rect x="944.36" y="437.45" width="29.82" height="29.82" fill="#000000"/>
<rect x="20.00" y="467.27" width="29.82" height="29.82" fill="#000000"/>
<rect x="139.27" y="467.27" width="29.82" height="29.82" fill="#000000"/>
<rect x="228.73" y="467.27" width="29.82" height="29.82" fill="#000000"/>
<rect x="318.18" y="467.27" width="29.82" height="29.82" fill="#000000"/>
<rect x="407.64" y="467.27" width="29.82" height="29.82" fill="#000000"/>
<rect x="437.45" y="467.27" width="29.82" height="29.82" fill="#000000"/>
<rect x="497.09" y="467.27" width="29.82" height="29.82" fill="#000000"/>
<rect x="586.55" y="467.27" width="29.82" height="29.82" fill="#000000"/>
<rect x="616.36" y="467.27" width="29.82" height="29.82" fill="#000000"/>
<rect x="646.18" y="467.27" width="29.82" height="29.82" fill="#000000"/>
<rect x="735.64" y="467.27" width="29.82" height="29.82" fill="#000000"/>
<rect x="765.45" y="467.27" width="29.82" height="29.82" fill="#000000"/>
<rect x="795.27" y="467.27" width="29.82" height="29.82" fill="#000000"/>
<rect x="825.09" y="467.27" width="29.82" height="29.82" fill="#000000"/>
<rect x="884.73" y="467.27" width="29.82" height="29.82" fill="#000000"/>
<rect x="914.55" y="467.27" width="29.82" height="29.82" fill="#000000"/>
<rect x="49.82" y="497.09" width="29.82" height="29.82" fill="#000000"/>
<rect x="79.64" y="497.09" width="29.82" height="29.82" fill="#000000"/>
<rect x="139.27" y="497.09" width="29.82" height="29.82" fill="#000000"/>
<rect x="198.91" y="497.09" width="29.82" height="29.82" fill="#000000"/>
<rect x="258.55" y="497.09" width="29.82" height="29.82" fill="#000000"/>
<rect x="348.00" y="497.09" width="29.82" height="29.82" fill="#000000"/>
<rect x="377.82" y="497.09" width="29.82" height="29.82" fill="#000000"/>
<rect x="497.09" y="497.09" width="29.82" height="29.82" fill="#000000"/>
<rect x="586.55" y="497.09" width="29.82" height="29.82" fill="#000000"/>
<rect x="616.36" y="497.09" width="29.82" height="29.82" fill="#000000"/>
<rect x="676.00" y="497.09" width="29.82" height="29.82" fill="#000000"/>
<rect x="765.45" y="497.09" width="29.82" height="29.82" fill="#000000"/>
<rect x="825.09" y="497.09" width="29.82" height="29.82" fill="#000000"/>
<rect x="854.91" y="497.09" width="29.82" height="29.82" fill="#000000"/>
<rect x="884.73" y="497.09" width="29.82" height="29.82" fill="#000000"/>
<rect x="974.18" y="497.09" width="29.82" height="29.82" fill="#000000"/>
<rect x="49.82" y="526.91" width="29.82" height="29.82" fill="#000000"/>
<rect x="109.45" y="526.91" width="29.82" height="29.82" fill="#000000"/>
<rect x="139.27" y="526.91" width="29.82" height="29.82" fill="#000000"/>
<rect x="348.00" y="526.91" width="29.82" height="29.82" fill="#000000"/>
<rect x="437.45" y="526.91" width="29.82" height="29.82" fill="#000000"/>
<rect x="467.27" y="526.91" width="29.82" height="29.82" fill="#000000"/>
<rect x="497.09" y="526.91" width="29.82" height="29.82" fill="#000000"/>
<rect x="526.91" y="526.91" width="29.82" height="29.82" fill="#000000"/>
<rect x="586.55" y="526.91" width="29.82" height="29.82" fill="#000000"/>
<rect x="616.36" y="526.91" width="29.82" height="29.82" fill="#000000"/>
<rect x="705.82" y="526.91" width="29.82" height="29.82" fill="#000000"/>
<rect x="765.45" y="526.91" width="29.82" height="29.82" fill="#000000"/>
<rect x="795.27" y="526.91" width="29.82" height="29.82" fill="#000000"/>
<rect x="825.09" y="526.91" width="29.82" height="29.82" fill="#000000"/>
<rect x="884.73" y="526.91" width="29.82" height="29.82" fill="#000000"/>
<rect x="914.55" y="526.91" width="29.82" height="29.82" fill="#000000"/>
<rect x="974.18" y="526.91" width="29.82" height="29.82" fill="#000000"/>
<rect x="49.82" y="556.73" width="29.82" height="29.82" fill="#000000"/>
<rect x="79.64" y="556.73" width="29.82" height="29.82" fill="#000000"/>
<rect x="139.27" y="556.73" width="29.82" height="29.82" fill="#000000"/>
<rect x="169.09" y="556.73" width="29.82" height="29.82" fill="#000000"/>
<rect x="198.91" y="556.73" width="29.82" height="29.82" fill="#000000"/>
<rect x="258.55" y="556.73" width="29.82" height="29.82" fill="#000000"/>
<rect x="288.36" y="556.73" width="29.82" height="29.82" fill="#000000"/>
<rect x="348.00" y="556.73" width="29.82" height="29.82" fill="#000000"/>
<rect x="407.64" y="556.73" width="29.82" height="29.82" fill="#000000"/>
<rect x="467.27" y="556.73" width="29.82" height="29.82" fill="#000000"/>
<rect x="497.09" y="556.73" width="29.82" height="29.82" fill="#000000"/>
<rect x="526.91" y="556.73" width="29.82" height="29.82" fill="#000000"/>
<rect x="616.36" y="556.73" width="29.82" height="29.82" fill="#000000"/>
<rect x="646.18" y="556.73" width="29.82" height="29.82" fill="#000000"/>
<rect x="825.09" y="556.73" width="29.82" height="29.82" fill="#000000"/>
<rect x="854.91" y="556.73" width="29.82" height="29.82" fill="#000000"/>
<rect x="914.55" y="556.73" width="29.82" height="29.82" fill="#000000"/>
<rect x="944.36" y="556.73" width="29.82" height="29.82" fill="#000000"/>
<rect x="20.00" y="586.55" width="29.82" height="29.82" fill="#000000"/>
<rect x="49.82" y="586.55" width="29.82" height="29.82" fill="#000000"/>
<rect x="139.27" y="586.55" width="29.82" height="29.82" fill="#000000"/>
<rect x="169.09" y="586.55" width="29.82" height="29.82" fill="#000000"/>
<rect x="258.55" y="586.55" width="29.82" height="29.82" fill="#000000"/>
<rect x="318.18" y="586.55" width="29.82" height="29.82" fill="#000000"/>
<rect x="348.00" y="586.55" width="29.82" height="29.82" fill="#000000"/>
<rect x="377.82" y="586.55" width="29.82" height="29.82" fill="#000000"/>
<rect x="407.64" y="586.55" width="29.82" height="29.82" fill="#000000"/>
<rect x="437.45" y="586.55" width="29.82" height="29.82" fill="#000000"/>
<rect x="526.91" y="586.55" width="29.82" height="29.82" fill="#000000"/>
<rect x="556.73" y="586.55" width="29.82" height="29.82" fill="#000000"/>
<rect x="646.18" y="586.55" width="29.82" height="29.82" fill="#000000"/>
<rect x="676.00" y="586.55" width="29.82" height="29.82" fill="#000000"/>
<rect x="765.45" y="586.55" width="29.82" height="29.82" fill="#000000"/>
<rect x="825.09" y="586.55" width="29.82" height="29.82" fill="#000000"/>
<rect x="854.91" y="586.55" width="29.82" height="29.82" fill="#000000"/>
<rect x="884.73" y="586.55" width="29.82" height="29.82" fill="#000000"/>
<rect x="914.55" y="586.55" width="29.82" height="29.82" fill="#000000"/>
<rect x="944.36" y="586.55" width="29.82" height="29.82" fill="#000000"/>
<rect x="20.00" y="616.36" width="29.82" height="29.82" fill="#000000"/>
<rect x="79.64" y="616.36" width="29.82" height="29.82" fill="#000000"/>
<rect x="198.91" y="616.36" width="29.82" height="29.82" fill="#000000"/>
<rect x="228.73" y="616.36" width="29.82" height="29.82" fill="#000000"/>
<rect x="288.36" y="616.36" width="29.82" height="29.82" fill="#000000"/>
<rect x="318.18" y="616.36" width="29.82" height="29.82" fill="#000000"/>
<rect x="377.82" y="616.36" width="29.82" height="29.82" fill="#000000"/>
<rect x="437.45" y="616.36" width="29.82" height="29.82" fill="#000000"/>
<rect x="467.27" y="616.36" width="29.82" height="29.82" fill="#000000"/>
<rect x="497.09" y="616.36" width="29.82" height="29.82" fill="#000000"/>
<rect x="616.36" y="616.36" width="29.82" height="29.82" fill="#000000"/>
<rect x="646.18" y="616.36" width="29.82" height="29.82" fill="#000000"/>
<rect x="676.00" y="616.36" width="29.82" height="29.82" fill="#000000"/>
<rect x="735.64" y="616.36" width="29.82" height="29.82" fill="#000000"/>
<rect x="765.45" y="616.36" width="29.82" height="29.82" fill="#000000"/>
<rect x="825.09" y="616.36" width="29.82" height="29.82" fill="#000000"/>
<rect x="884.73" y="616.36" width="29.82" height="29.82" fill="#000000"/>
<rect x="944.36" y="616.36" width="29.82" height="29.82" fill="#000000"/>
<rect x="974.18" y="616.36" width="29.82" height="29.82" fill="#000000"/>
<rect x="20.00" y="646.18" width="29.82" height="29.82" fill="#000000"/>
<rect x="49.82" y="646.18" width="29.82" height="29.82" fill="#000000"/>
<rect x="79.64" y="646.18" width="29.82" height="29.82" fill="#000000"/>
<rect x="139.27" y="646.18" width="29.82" height="29.82" fill="#000000"/>
<rect x="258.55" y="646.18" width="29.82" height="29.82" fill="#000000"/>
<rect x="288.36" y="646.18" width="29.82" height="29.82" fill="#000000"/>
<rect x="318.18" y="646.18" width="29.82" height="29.82" fill="#000000"/>
<rect x="437.45" y="646.18" width="29.82" height="29.82" fill="#000000"/>
<rect x="467.27" y="646.18" width="29.82" height="29.82" fill="#000000"/>
<rect x="556.73" y="646.18" width="29.82" height="29.82" fill="#000000"/>
<rect x="646.18" y="646.18" width="29.82" height="29.82" fill="#000000"/>
<rect x="705.82" y="646.18" width="29.82" height="29.82" fill="#000000"/>
<rect x="974.18" y="646.18" width="29.82" height="29.82" fill="#000000"/>
<rect x="20.00" y="676.00" width="29.82" height="29.82" fill="#000000"/>
<rect x="79.64" y="676.00" width="29.82" height="29.82" fill="#000000"/>
<rect x="109.45" y="676.00" width="29.82" height="29.82" fill="#000000"/>
<rect x="198.91" y="676.00" width="29.82" height="29.82" fill="#000000"/>
<rect x="258.55" y="676.00" width="29.82" height="29.82" fill="#000000"/>
<rect x="377.82" y="676.00" width="29.82" height="29.82" fill="#000000"/>
<rect x="407.64" y="676.00" width="29.82" height="29.82" fill="#000000"/>
<rect x="437.45" y="676.00" width="29.82" height="29.82" fill="#000000"/>
<rect x="467.27" y="676.00" width="29.82" height="29.82" fill="#000000"/>
<rect x="497.09" y="676.00" width="29.82" height="29.82" fill="#000000"/>
<rect x="526.91" y="676.00" width="29.82" height="29.82" fill="#000000"/>
<rect x="616.36" y="676.00" width="29.82" height="29.82" fill="#000000"/>
<rect x="646.18" y="676.00" width="29.82" height="29.82" fill="#000000"/>
<rect x="676.00" y="676.00" width="29.82" height="29.82" fill="#000000"/>
<rect x="735.64" y="676.00" width="29.82" height="29.82" fill="#000000"/>
<rect x="795.27" y="676.00" width="29.82" height="29.82" fill="#000000"/>
<rect x="825.09" y="676.00" width="29.82" height="29.82" fill="#000000"/>
<rect x="884.73" y="676.00" width="29.82" height="29.82" fill="#000000"/>
<rect x="914.55" y="676.00" width="29.82" height="29.82" fill="#000000"/>
<rect x="944.36" y="676.00" width="29.82" height="29.82" fill="#000000"/>
<rect x="20.00" y="705.82" width="29.82" height="29.82" fill="#000000"/>
<rect x="139.27" y="705.82" width="29.82" height="29.82" fill="#000000"/>
<rect x="169.09" y="705.82" width="29.82" height="29.82" fill="#000000"/>
<rect x="348.00" y="705.82" width="29.82" height="29.82" fill="#000000"/>
<rect x="377.82" y="705.82" width="29.82" height="29.82" fill="#000000"/>
<rect x="407.64" y="705.82" width="29.82" height="29.82" fill="#000000"/>
<rect x="437.45" y="705.82" width="29.82" height="29.82" fill="#000000"/>
<rect x="467.27" y="705.82" width="29.82" height="29.82" fill="#000000"/>
<rect x="646.18" y="705.82" width="29.82" height="29.82" fill="#000000"/>
<rect x="676.00" y="705.82" width="29.82" height="29.82" fill="#000000"/>
<rect x="705.82" y="705.82" width="29.82" height="29.82" fill="#000000"/>
<rect x="735.64" y="705.82" width="29.82" height="29.82" fill="#000000"/>
<rect x="765.45" y="705.82" width="29.82" height="29.82" fill="#000000"/>
<rect x="854.91" y="705.82" width="29.82" height="29.82" fill="#000000"/>
<rect x="884.73" y="705.82" width="29.82" height="29.82" fill="#000000"/>
<rect x="914.55" y="705.82" width="29.82" height="29.82" fill="#000000"/>
<rect x="20.00" y="735.64" width="29.82" height="29.82" fill="#000000"/>
<rect x="79.64" y="735.64" width="29.82" height="29.82" fill="#000000"/>
<rect x="139.27" y="735.64" width="29.82" height="29.82" fill="#000000"/>
<rect x="198.91" y="735.64" width="29.82" height="29.82" fill="#000000"/>
<rect x="228.73" y="735.64" width="29.82" height="29.82" fill="#000000"/>
<rect x="288.36" y="735.64" width="29.82" height="29.82" fill="#000000"/>
<rect x="318.18" y="735.64" width="29.82" height="29.82" fill="#000000"/>
<rect x="467.27" y="735.64" width="29.82" height="29.82" fill="#000000"/>
<rect x="526.91" y="735.64" width="29.82" height="29.82" fill="#000000"/>
<rect x="616.36" y="735.64" width="29.82" height="29.82" fill="#000000"/>
<rect x="735.64" y="735.64" width="29.82" height="29.82" fill="#000000"/>
<rect x="765.45" y="735.64" width="29.82" height="29.82" fill="#000000"/>
<rect x="795.27" y="735.64" width="29.82" height="29.82" fill="#000000"/>
<rect x="825.09" y="735.64" width="29.82" height="29.82" fill="#000000"/>
<rect x="854.91" y="735.64" width="29.82" height="29.82" fill="#000000"/>
<rect x="914.55" y="735.64" width="29.82" height="29.82" fill="#000000"/>
<rect x="258.55" y="765.45" width="29.82" height="29.82" fill="#000000"/>
<rect x="288.36" y="765.45" width="29.82" height="29.82" fill="#000000"/>
<rect x="318.18" y="765.45" width="29.82" height="29.82" fill="#000000"/>
<rect x="377.82" y="765.45" width="29.82" height="29.82" fill="#000000"/>
<rect x="497.09" y="765.45" width="29.82" height="29.82" fill="#000000"/>
<rect x="556.73" y="765.45" width="29.82" height="29.82" fill="#000000"/>
<rect x="616.36" y="765.45" width="29.82" height="29.82" fill="#000000"/>
<rect x="705.82" y="765.45" width="29.82" height="29.82" fill="#000000"/>
<rect x="735.64" y="765.45" width="29.82" height="29.82" fill="#000000"/>
<rect x="854.91" y="765.45" width="29.82" height="29.82" fill="#000000"/>
<rect x="914.55" y="765.45" width="29.82" height="29.82" fill="#000000"/>
<rect x="944.36" y="765.45" width="29.82" height="29.82" fill="#000000"/>
<rect x="974.18" y="765.45" width="29.82" height="29.82" fill="#000000"/>
<rect x="318.18" y="795.27" width="29.82" height="29.82" fill="#000000"/>
<rect x="407.64" y="795.27" width="29.82" height="29.82" fill="#000000"/>
<rect x="437.45" y="795.27" width="29.82" height="29.82" fill="#000000"/>
<rect x="467.27" y="795.27" width="29.82" height="29.82" fill="#000000"/>
<rect x="556.73" y="795.27" width="29.82" height="29.82" fill="#000000"/>
<rect x="646.18" y="795.27" width="29.82" height="29.82" fill="#000000"/>
<rect x="676.00" y="795.27" width="29.82" height="29.82" fill="#000000"/>
<rect x="705.82" y="795.27" width="29.82" height="29.82" fill="#000000"/>
<rect x="735.64" y="795.27" width="29.82" height="29.82" fill="#000000"/>
<rect x="795.27" y="795.27" width="29.82" height="29.82" fill="#000000"/>
<rect x="854.91" y="795.27" width="29.82" height="29.82" fill="#000000"/>
<rect x="914.55" y="795.27" width="29.82" height="29.82" fill="#000000"/>
<rect x="258.55" y="825.09" width="29.82" height="29.82" fill="#000000"/>
<rect x="377.82" y="825.09" width="29.82" height="29.82" fill="#000000"/>
<rect x="407.64" y="825.09" width="29.82" height="29.82" fill="#000000"/>
<rect x="437.45" y="825.09" width="29.82" height="29.82" fill="#000000"/>
<rect x="467.27" y="825.09" width="29.82" height="29.82" fill="#000000"/>
<rect x="616.36" y="825.09" width="29.82" height="29.82" fill="#000000"/>
<rect x="646.18" y="825.09" width="29.82" height="29.82" fill="#000000"/>
<rect x="705.82" y="825.09" width="29.82" height="29.82" fill="#000000"/>
<rect x="735.64" y="825.09" width="29.82" height="29.82" fill="#000000"/>
<rect x="854.91" y="825.09" width="29.82" height="29.82" fill="#000000"/>
<rect x="884.73" y="825.09" width="29.82" height="29.82" fill="#000000"/>
<rect x="914.55" y="825.09" width="29.82" height="29.82" fill="#000000"/>
<rect x="944.36" y="825.09" width="29.82" height="29.82" fill="#000000"/>
<rect x="258.55" y="854.91" width="29.82" height="29.82" fill="#000000"/>
<rect x="318.18" y="854.91" width="29.82" height="29.82" fill="#000000"/>
<rect x="348.00" y="854.91" width="29.82" height="29.82" fill="#000000"/>
<rect x="407.64" y="854.91" width="29.82" height="29.82" fill="#000000"/>
<rect x="556.73" y="854.91" width="29.82" height="29.82" fill="#000000"/>
<rect x="646.18" y="854.91" width="29.82" height="29.82" fill="#000000"/>
<rect x="735.64" y="854.91" width="29.82" height="29.82" fill="#000000"/>
<rect x="765.45" y="854.91" width="29.82" height="29.82" fill="#000000"/>
<rect x="795.27" y="854.91" width="29.82" height="29.82" fill="#000000"/>
<rect x="825.09" y="854.91" width="29.82" height="29.82" fill="#000000"/>
<rect x="854.91" y="854.91" width="29.82" height="29.82" fill="#000000"/>
<rect x="884.73" y="854.91" width="29.82" height="29.82" fill="#000000"/>
<rect x="974.18" y="854.91" width="29.82" height="29.82" fill="#000000"/>
<rect x="258.55" y="884.73" width="29.82" height="29.82" fill="#000000"/>
<rect x="288.36" y="884.73" width="29.82" height="29.82" fill="#000000"/>
<rect x="407.64" y="884.73" width="29.82" height="29.82" fill="#000000"/>
<rect x="437.45" y="884.73" width="29.82" height="29.82" fill="#000000"/>
<rect x="467.27" y="884.73" width="29.82" height="29.82" fill="#000000"/>
<rect x="497.09" y="884.73" width="29.82" height="29.82" fill="#000000"/>
<rect x="616.36" y="884.73" width="29.82" height="29.82" fill="#000000"/>
<rect x="705.82" y="884.73" width="29.82" height="29.82" fill="#000000"/>
<rect x="765.45" y="884.73" width="29.82" height="29.82" fill="#000000"/>
<rect x="854.91" y="884.73" width="29.82" height="29.82" fill="#000000"/>
<rect x="884.73" y="884.73" width="29.82" height="29.82" fill="#000000"/>
<rect x="914.55" y="884.73" width="29.82" height="29.82" fill="#000000"/>
<rect x="944.36" y="884.73" width="29.82" height="29.82" fill="#000000"/>
<rect x="974.18" y="884.73" width="29.82" height="29.82" fill="#000000"/>
<rect x="258.55" y="914.55" width="29.82" height="29.82" fill="#000000"/>
<rect x="348.00" y="914.55" width="29.82" height="29.82" fill="#000000"/>
<rect x="407.64" y="914.55" width="29.82" height="29.82" fill="#000000"/>
<rect x="437.45" y="914.55" width="29.82" height="29.82" fill="#000000"/>
<rect x="526.91" y="914.55" width="29.82" height="29.82" fill="#000000"/>
<rect x="586.55" y="914.55" width="29.82" height="29.82" fill="#000000"/>
<rect x="676.00" y="914.55" width="29.82" height="29.82" fill="#000000"/>
<rect x="705.82" y="914.55" width="29.82" height="29.82" fill="#000000"/>
<rect x="795.27" y="914.55" width="29.82" height="29.82" fill="#000000"/>
<rect x="825.09" y="914.55" width="29.82" height="29.82" fill="#000000"/>
<rect x="884.73" y="914.55" width="29.82" height="29.82" fill="#000000"/>
<rect x="288.36" y="944.36" width="29.82" height="29.82" fill="#000000"/>
<rect x="318.18" y="944.36" width="29.82" height="29.82" fill="#000000"/>
<rect x="407.64" y="944.36" width="29.82" height="29.82" fill="#000000"/>
<rect x="437.45" y="944.36" width="29.82" height="29.82" fill="#000000"/>
<rect x="497.09" y="944.36" width="29.82" height="29.82" fill="#000000"/>
<rect x="586.55" y="944.36" width="29.82" height="29.82" fill="#000000"/>
<rect x="616.36" y="944.36" width="29.82" height="29.82" fill="#000000"/>
<rect x="646.18" y="944.36" width="29.82" height="29.82" fill="#000000"/>
<rect x="676.00" y="944.36" width="29.82" height="29.82" fill="#000000"/>
<rect x="735.64" y="944.36" width="29.82" height="29.82" fill="#000000"/>
<rect x="795.27" y="944.36" width="29.82" height="29.82" fill="#000000"/>
<rect x="854.91" y="944.36" width="29.82" height="29.82" fill="#000000"/>
<rect x="884.73" y="944.36" width="29.82" height="29.82" fill="#000000"/>
<rect x="914.55" y="944.36" width="29.82" height="29.82" fill="#000000"/>
<rect x="258.55" y="974.18" width="29.82" height="29.82" fill="#000000"/>
<rect x="437.45" y="974.18" width="29.82" height="29.82" fill="#000000"/>
<rect x="497.09" y="974.18" width="29.82" height="29.82" fill="#000000"/>
<rect x="586.55" y="974.18" width="29.82" height="29.82" fill="#000000"/>
<rect x="676.00" y="974.18" width="29.82" height="29.82" fill="#000000"/>
<rect x="705.82" y="974.18" width="29.82" height="29.82" fill="#000000"/>
<rect x="735.64" y="974.18" width="29.82" height="29.82" fill="#000000"/>
<rect x="765.45" y="974.18" width="29.82" height="29.82" fill="#000000"/>
<rect x="795.27" y="974.18" width="29.82" height="29.82" fill="#000000"/>
<rect x="825.09" y="974.18" width="29.82" height="29.82" fill="#000000"/>
<rect x="914.55" y="974.18" width="29.82" height="29.82" fill="#000000"/>
<rect x="944.36" y="974.18" width="29.82" height="29.82" fill="#000000"/>
<rect x="20.00" y="20.00" width="208.73" height="208.73" rx="0.00" fill="#000000"/>
<rect x="49.82" y="49.82" width="149.09" height="149.09" rx="0.00" fill="#ffffff"/>
<rect x="79.64" y="79.64" width="89.45" height="89.45" fill="#000000"/>
<rect x="795.27" y="20.00" width="208.73" height="208.73" rx="0.00" fill="#000000"/>
<rect x="825.09" y="49.82" width="149.09" height="149.09" rx="0.00" fill="#ffffff"/>
<rect x="854.91" y="79.64" width="89.45" height="89.45" fill="#000000"/>
<rect x="20.00" y="795.27" width="208.73" height="208.73" rx="0.00" fill="#000000"/>
<rect x="49.82" y="825.09" width="149.09" height="149.09" rx="0.00" fill="#ffffff"/>
<rect x="79.64" y="854.91" width="89.45" height="89.45" fill="#000000"/>
</svg>